PathFileType	4	(X/Y/Z)	Walk1_0-155.trc
DataRate	CameraRate	NumFrames	NumMarkers	Units	OrigDataRate	OrigDataStartFrame	OrigNumFrames
30	30	8	22	m	30	19	155
Frame#	Time	Hip			RHip			RKnee			RAnkle			RBigToe			RSmallToe			RHeel			LHip			LKnee			LAnkle			LBigToe			LSmallToe			LHeel			Neck			Head			Nose			RShoulder			RElbow			RWrist			LShoulder			LElbow			LWrist		
		X1	Y1	Z1	X2	Y2	Z2	X3	Y3	Z3	X4	Y4	Z4	X5	Y5	Z5	X6	Y6	Z6	X7	Y7	Z7	X8	Y8	Z8	X9	Y9	Z9	X10	Y10	Z10	X11	Y11	Z11	X12	Y12	Z12	X13	Y13	Z13	X14	Y14	Z14	X15	Y15	Z15	X16	Y16	Z16	X17	Y17	Z17	X18	Y18	Z18	X19	Y19	Z19	X20	Y20	Z20	X21	Y21	Z21	X22	Y22	Z22
20	0.6666666666666666	-2.5071379244687435	0.8370450957696784	0.32355769595818473	-2.4692834189973785	0.8270270895361604	0.41618609107738047	-2.316180901583304	0.5192280424791842	0.45797841665422245	-2.4699424556894214	0.13751974763726632	0.48627124711870057	-2.3203430720336367	0.007253297778544457	0.5223778808606496	-2.354397877129415	0.017347983575339142	0.5758174799883761	-2.529866540250267	0.061018702004025135	0.47410402892297	-2.530980901207293	0.8048098592508578	0.22828263600697768	-2.5012103294795436	0.45653392438565593	0.23585601460656758	-2.5774355724408733	0.07432683616113624	0.2708124142179399	-2.385420755879017	-0.01157807017395982	0.2690557057207629	-2.434545996902158	-0.017974568097582883	0.21113017901753028	-2.6291244012179287	-0.006272341538214273	0.2777120940762299	-2.492591486252303	1.5173137331915643	0.2772853070780078	-2.430331246865194	1.7719396116036625	0.24404621417171524	-2.347751460069492	1.6377327249751605	0.2846765942600108	-2.533445281996146	1.4030067567439877	0.46487322528885117	-2.5142206558100004	1.088299930373071	0.5513973446655447	-2.426149385359229	0.8503434355775819	0.568184829966305	-2.528838077185733	1.3971445311611626	0.09846474586867318	-2.5082200887631747	1.0858541974784883	0.06837860745365126	-2.4602838793514046	0.8366089336853357	0.07919113414683822
21	0.7	-2.4961032962593794	0.8398032040384248	0.3211646031301804	-2.455614138029737	0.8323996677488738	0.4130371799749884	-2.2939248550644145	0.5262376880947701	0.4546154989794596	-2.431758799195504	0.14246485933507924	0.48034644989152403	-2.2826363712102404	0.013735351774300304	0.5129252502517915	-2.3166835279352522	0.022223015073546865	0.5637785929439295	-2.5023683046334555	0.06118754016356674	0.4663392967786281	-2.524094477933662	0.8081231479958001	0.2256868015375221	-2.4969221447843313	0.4576716610069555	0.2337393293943596	-2.577022222656727	0.07475751001480543	0.26911039889146904	-2.384595639738427	-0.013227135225392928	0.26789034431879144	-2.4349545217125383	-0.019107022243657425	0.2112759976877434	-2.6289997616140623	-0.005344461328254566	0.2743548214753663	-2.482080511160921	1.5185086919000212	0.2751257638291516	-2.419002712988016	1.7731347698750084	0.24330916674818856	-2.3378237983625834	1.6370778654542428	0.2848793968984716	-2.524894225501228	1.4045934969458902	0.4633876586187325	-2.509922366611887	1.0893974214600841	0.5497251977349069	-2.424712044370537	0.8491078494995513	0.5680671755514074	-2.52905381595741	1.4018586796115122	0.07958924039315694	-2.4975207173132925	1.0869519121443119	0.06568114613262507	-2.450412033620007	0.8375058912366885	0.07606615113719307
22	0.7333333333333333	-2.4840612254055694	0.8420014337231505	0.31930940847222206	-2.441035098759168	0.8362113976719654	0.41089426346885505	-2.2774074894383105	0.5306215369856904	0.45058914482968565	-2.3918709078928986	0.14289134121340252	0.4744554137287693	-2.236917868701571	0.021713309299648823	0.5031730956821631	-2.2695715146443582	0.026741770394197933	0.5517635583649138	-2.466223665782082	0.05804520431695646	0.46005027019213873	-2.5155598546448865	0.810347738335926	0.22451362555403437	-2.492791569691983	0.45743782457169796	0.232887354144299	-2.5762181155329626	0.07485446045920176	0.26736060082837954	-2.3835913823012658	-0.015403947562487781	0.2673023667101812	-2.4343679662424034	-0.020429957562331274	0.21184849550670326	-2.6280141032834137	-0.004987472965274287	0.2708433620831811	-2.47065383181971	1.5193592769781112	0.27359183884820104	-2.406688396940329	1.7736190091901023	0.24699200068077326	-2.3247975184906493	1.6366102020978315	0.2869698738048314	-2.514779381130755	1.4055899832317236	0.4623517892728908	-2.504652538942803	1.0903037134089089	0.5489490398490866	-2.4241721290384275	0.847397946270841	0.5683602266985257	-2.527057631018022	1.4060943330455444	0.06379483310631506	-2.485409620704097	1.0879270505015117	0.06417434256736074	-2.4380824342684497	0.8387731641074554	0.07457928089606185
23	0.7666666666666667	-2.4714025995674005	0.8434112621388268	0.3180159212625521	-2.4259917404297697	0.8379546972135208	0.41009402932770816	-2.2658594312089724	0.5321590632085814	0.4456989628913392	-2.3504228947783674	0.13959175312836203	0.4692631192428774	-2.1844195653012277	0.03204420094878327	0.49439794914149277	-2.2147234740451474	0.03215888589821193	0.541484523925509	-2.420974099701319	0.0529038049939939	0.45592115357237706	-2.5051591752478783	0.8110234993617615	0.22470796984893165	-2.4887400189029862	0.4556228967535338	0.2333314353783492	-2.575232876891969	0.07424193118204747	0.26607929495123084	-2.3826758884797634	-0.018082763003325186	0.26765291873886365	-2.4329204635532196	-0.02207603564167544	0.21318583775739483	-2.6262906648325774	-0.0056370824614716845	0.26803814635661416	-2.458202375047463	1.5196772938577083	0.2726932983090856	-2.3928377227535678	1.7730512336819821	0.2540393963444534	-2.309155332698503	1.6362886521648101	0.29010831077494437	-2.5031450189189033	1.405768945251316	0.4616570435337866	-2.498170618859067	1.0908351517224515	0.548873698315065	-2.4240829321939272	0.8454837143632387	0.5690841413253543	-2.521028615458051	1.4091526116500444	0.053810936933759206	-2.4718552613180083	1.0885129079735651	0.06378073920085693	-2.423240568267	0.8401309128436028	0.07484225173565613
24	0.8	-2.4585158290138724	0.8438007510772059	0.31727053180587506	-2.411047064484677	0.8375132577709982	0.4106150694138719	-2.2581738110717153	0.5314107943557252	0.4395261199403761	-2.307665792570299	0.13403835890375546	0.4651832720630942	-2.1275591173637713	0.0446025755684625	0.48705623072069054	-2.155395267695131	0.03962505456044312	0.5336082411952692	-2.368725655553281	0.0467405542337333	0.453524112042482	-2.493088901179471	0.810116148627599	0.22595306008969543	-2.484622718138646	0.4524553083629466	0.2348574514336531	-2.574250550442234	0.07264106573555057	0.2658021172821805	-2.3821657749199994	-0.021171613372124684	0.2692963499373949	-2.4310857086429616	-0.02425819388825786	0.21580224073048332	-2.6242607815279015	-0.007598689094080744	0.2669105958822852	-2.4445859108539234	1.5194854445207255	0.27246796059108513	-2.377459021890754	1.7715947343472864	0.2635069220410644	-2.2922328622623773	1.6360319812445137	0.2930466267179562	-2.4901900396754257	1.4052065027364993	0.4613928219647275	-2.490320091648585	1.0909643397783577	0.5492323642290516	-2.4239849041740253	0.8436481804072427	0.5702658335582067	-2.5105938459275317	1.4109701007528943	0.04995651338537335	-2.4568761015703897	1.0885475662096527	0.06430691434780086	-2.4059730219319637	0.8412342598995994	0.07675473706024825
25	0.8333333333333334	-2.4457329704710333	0.8429096868163863	0.31702202602277163	-2.3967805607074126	0.8352249927028861	0.4120190632010003	-2.2524225310537567	0.5290685565896818	0.43220726769683665	-2.2641303615252815	0.12790561654925015	0.4623044405556207	-2.0693265193990302	0.05820224151379119	0.48064452180169076	-2.095323905150016	0.04947103269309793	0.5276559700715631	-2.3134018599946113	0.040130648856375614	0.4517259575635904	-2.4799651421115003	0.8080142670474169	0.2277301594420007	-2.480179791026618	0.44849379445815396	0.2369896756397709	-2.5733395781657946	0.07001142197162007	0.26677116414996205	-2.382376174072506	-0.024583564685287832	0.2725134476170633	-2.4296858463249547	-0.027190240913091572	0.2202553069044143	-2.6225069467198643	-0.010827556069800667	0.2681709260674175	-2.4297137769421058	1.518948296757639	0.2729619159399508	-2.3611660940443926	1.7698046725791157	0.273643613131202	-2.2753067780664304	1.6357385699969575	0.2948525833659965	-2.4761462726365995	1.4042172412246765	0.46162191154247295	-2.481091548392714	1.0907842882523675	0.5497483397347074	-2.4235422961502273	0.8419976266410114	0.5719029851963519	-2.4964235555253174	1.411864848780842	0.050899079709072134	-2.4405752105025034	1.087994816309509	0.06552526724671491	-2.3865992837449297	0.8417110133062504	0.07995563754971638
26	0.8666666666666667	-2.433182505814053	0.8405690154592602	0.31718711662170895	-2.383478176058387	0.8317282794965559	0.41362684799109795	-2.245914795588127	0.5255804795623643	0.42479151867540593	-2.2210015896431745	0.12275353926599618	0.46031158861398547	-2.012833050367484	0.07123543686086686	0.474440760722931	-2.0378983407026845	0.06083021262461184	0.522713883816018	-2.259515511030997	0.03373778703973057	0.44953590528267434	-2.466479561371443	0.8053423270460001	0.22944162375975882	-2.475075820026576	0.4443598649384617	0.2391601889072028	-2.5725357772753092	0.06659938558334531	0.2688727090244542	-2.3835620215685496	-0.028152344974228614	0.2773652919965584	-2.429633966722498	-0.0307762932564277	0.22685249242224845	-2.6215689397894733	-0.0148581509245309	0.27193576772170636	-2.413580289150275	1.518201320473275	0.27416049521929653	-2.3447594435292927	1.7682455712784046	0.2818714363885262	-2.25902389699466	1.6352198434324199	0.2954435778019853	-2.461123858809316	1.4031681420665552	0.4622101191748432	-2.470582457371946	1.090427522710069	0.5502305277702014	-2.4225278370980763	0.8404767472400938	0.5739568395313323	-2.4795423808451558	1.4121636777563211	0.05473869088491374	-2.4230713036945306	1.0868721157889811	0.06727847484386756	-2.365645372587178	0.8412212222699623	0.08389797755822546
27	0.9	-2.420609043735885	0.8369186622166283	0.3177146168633297	-2.3707987512654225	0.82770187811364	0.4149117947527679	-2.236356946607354	0.5213584587343114	0.41845340403524933	-2.1801337654940625	0.11969664759730782	0.45844072627509724	-1.9609902598055753	0.08209096346447321	0.4682817791791039	-1.9858633349983699	0.07172186840114995	0.5181025678982707	-2.210998646913588	0.028548955878717884	0.44663139582854344	-2.4529260832173008	0.8027297041094631	0.23060320012129903	-2.4689710819541957	0.44047139688583664	0.24106995792940272	-2.5719285823259903	0.06294707757668927	0.27175804618239247	-2.3856727964853572	-0.03151996152208725	0.28339036206144513	-2.4313677733897343	-0.034433269955185725	0.23516355507024891	-2.621752985810872	-0.01888583719182909	0.2775509763530411	-2.396221276174206	1.517232488150395	0.2760161096906441	-2.328721692230151	1.7671133089797697	0.28671883786333413	-2.2433713388666634	1.6341670762698435	0.2955384737935789	-2.445055876299823	1.4022789014618027	0.46300968718329044	-2.458840012889129	1.0899296528569928	0.550666647022315	-2.4206405840969767	0.8390253371988822	0.5763652283856067	-2.4608347112492064	1.4119751045520035	0.05983734884719945	-2.4044237809215208	1.085218742578331	0.06952249632109618	-2.34366950729293	0.8395956336677871	0.08802816877340422
